<svg width="1920" height="1080" viewBox="0 0 1920 1080" fill="none" xmlns="http://www.w3.org/2000/svg">
<rect width="1920" height="1080" fill="white"/>
<path d="M590.958 515.536C580.014 515.536 571.518 519.424 565.47 527.488C559.854 534.688 557.118 543.76 557.118 554.992C557.118 565.936 559.854 575.008 565.326 582.208C571.374 589.984 579.726 594.016 590.382 594.016C601.038 594.016 609.246 588.832 615.006 578.464V620.512H626.526V517.552H615.726V529.792C610.254 520.288 602.046 515.536 590.958 515.536ZM592.398 525.04C599.886 525.04 605.646 527.92 609.822 533.824C613.422 539.008 615.294 545.92 615.294 554.272V555.712C615.294 564.352 613.134 571.264 609.102 576.592C604.926 581.776 599.454 584.512 592.83 584.512C584.766 584.512 578.574 581.632 574.542 576.16C570.798 570.976 568.926 563.92 568.926 554.992C568.926 546.208 570.654 539.152 574.254 533.968C578.286 527.92 584.334 525.04 592.398 525.04ZM636.165 517.552L661.509 592H672.309L689.877 532.096L707.157 592H718.101L743.445 517.552H730.773L712.485 577.888L695.205 517.552H684.405L667.125 577.888L648.837 517.552H636.165ZM783.748 515.536C772.948 515.536 764.452 519.424 758.116 527.2C751.78 534.544 748.756 543.76 748.756 554.704C748.756 566.8 751.924 576.304 758.548 583.504C764.884 590.416 773.524 594.016 784.18 594.016C793.828 594.016 801.748 591.136 807.94 585.664C812.98 581.056 816.292 575.296 818.02 568.096H806.5C804.628 573.28 802.18 577.168 799.012 579.76C795.268 582.784 790.228 584.368 784.18 584.368C777.124 584.368 771.508 582.064 767.476 577.456C763.444 572.848 761.284 566.368 760.708 558.016H819.46C819.172 545.056 816.292 534.832 810.82 527.632C804.772 519.568 795.7 515.536 783.748 515.536ZM784.036 525.184C798.148 525.184 806.068 533.104 807.508 549.088H760.996C761.716 541.744 764.02 535.984 768.052 531.664C772.084 527.344 777.412 525.184 784.036 525.184ZM863.911 515.536C852.967 515.536 844.471 519.424 838.423 527.488C832.807 534.688 830.071 543.76 830.071 554.992C830.071 565.936 832.807 575.008 838.279 582.208C844.327 589.984 852.679 594.016 863.335 594.016C873.991 594.016 882.199 588.832 887.959 578.464V620.512H899.479V517.552H888.679V529.792C883.207 520.288 874.999 515.536 863.911 515.536ZM865.351 525.04C872.839 525.04 878.599 527.92 882.775 533.824C886.375 539.008 888.247 545.92 888.247 554.272V555.712C888.247 564.352 886.087 571.264 882.055 576.592C877.879 581.776 872.407 584.512 865.783 584.512C857.719 584.512 851.527 581.632 847.495 576.16C843.751 570.976 841.879 563.92 841.879 554.992C841.879 546.208 843.607 539.152 847.207 533.968C851.239 527.92 857.287 525.04 865.351 525.04ZM909.118 517.552L934.462 592H945.262L962.83 532.096L980.11 592H991.054L1016.4 517.552H1003.73L985.438 577.888L968.158 517.552H957.358L940.078 577.888L921.79 517.552H909.118ZM1056.7 515.536C1045.9 515.536 1037.41 519.424 1031.07 527.2C1024.73 534.544 1021.71 543.76 1021.71 554.704C1021.71 566.8 1024.88 576.304 1031.5 583.504C1037.84 590.416 1046.48 594.016 1057.13 594.016C1066.78 594.016 1074.7 591.136 1080.89 585.664C1085.93 581.056 1089.25 575.296 1090.97 568.096H1079.45C1077.58 573.28 1075.13 577.168 1071.97 579.76C1068.22 582.784 1063.18 584.368 1057.13 584.368C1050.08 584.368 1044.46 582.064 1040.43 577.456C1036.4 572.848 1034.24 566.368 1033.66 558.016H1092.41C1092.13 545.056 1089.25 534.832 1083.77 527.632C1077.73 519.568 1068.65 515.536 1056.7 515.536ZM1056.99 525.184C1071.1 525.184 1079.02 533.104 1080.46 549.088H1033.95C1034.67 541.744 1036.97 535.984 1041.01 531.664C1045.04 527.344 1050.37 525.184 1056.99 525.184ZM1136.86 515.536C1125.92 515.536 1117.42 519.424 1111.38 527.488C1105.76 534.688 1103.02 543.76 1103.02 554.992C1103.02 565.936 1105.76 575.008 1111.23 582.208C1117.28 589.984 1125.63 594.016 1136.29 594.016C1146.94 594.016 1155.15 588.832 1160.91 578.464V620.512H1172.43V517.552H1161.63V529.792C1156.16 520.288 1147.95 515.536 1136.86 515.536ZM1138.3 525.04C1145.79 525.04 1151.55 527.92 1155.73 533.824C1159.33 539.008 1161.2 545.92 1161.2 554.272V555.712C1161.2 564.352 1159.04 571.264 1155.01 576.592C1150.83 581.776 1145.36 584.512 1138.74 584.512C1130.67 584.512 1124.48 581.632 1120.45 576.16C1116.7 570.976 1114.83 563.92 1114.83 554.992C1114.83 546.208 1116.56 539.152 1120.16 533.968C1124.19 527.92 1130.24 525.04 1138.3 525.04ZM1182.07 517.552L1207.42 592H1218.22L1235.78 532.096L1253.06 592H1264.01L1289.35 517.552H1276.68L1258.39 577.888L1241.11 517.552H1230.31L1213.03 577.888L1194.74 517.552H1182.07ZM1329.65 515.536C1318.85 515.536 1310.36 519.424 1304.02 527.2C1297.69 534.544 1294.66 543.76 1294.66 554.704C1294.66 566.8 1297.83 576.304 1304.45 583.504C1310.79 590.416 1319.43 594.016 1330.09 594.016C1339.73 594.016 1347.65 591.136 1353.85 585.664C1358.89 581.056 1362.2 575.296 1363.93 568.096H1352.41C1350.53 573.28 1348.09 577.168 1344.92 579.76C1341.17 582.784 1336.13 584.368 1330.09 584.368C1323.03 584.368 1317.41 582.064 1313.38 577.456C1309.35 572.848 1307.19 566.368 1306.61 558.016H1365.37C1365.08 545.056 1362.2 534.832 1356.73 527.632C1350.68 519.568 1341.61 515.536 1329.65 515.536ZM1329.94 525.184C1344.05 525.184 1351.97 533.104 1353.41 549.088H1306.9C1307.62 541.744 1309.93 535.984 1313.96 531.664C1317.99 527.344 1323.32 525.184 1329.94 525.184Z" fill="black"/>
</svg>
