<svg width="1920" height="1080" viewBox="0 0 1920 1080" fill="none" xmlns="http://www.w3.org/2000/svg">
<rect width="1920" height="1080" fill="#DE4C4F"/>
<path d="M461.04 546.648V516.552H488.112V546.648H461.04ZM498.768 563.064V516.552H521.088V506.328H498.768V473.064H488.112V506.328H461.04V471.336H450.528V506.328H423.744V474.36H412.8V506.328H391.344V516.552H412.8V601.944H423.744V591.432H516.192V581.064H423.744V516.552H450.528V563.784H461.04V556.728H488.112V563.064H498.768ZM573.072 560.328C573.072 571.128 570.48 585.096 545.424 594.312C547.728 596.472 551.184 600.216 552.768 602.952C580.56 591.72 583.872 574.44 583.872 560.76V551.976H573.072V560.328ZM561.552 508.056H594.528V523.608H561.552V508.056ZM561.552 484.296H594.528V499.56H561.552V484.296ZM638.304 499.56H605.04V484.296H638.304V499.56ZM638.304 523.608H605.04V508.056H638.304V523.608ZM649.248 532.68V475.224H551.04V532.68H579.696C568.752 543.912 551.472 553.56 534.912 558.312C537.36 560.472 540.384 564.36 542.112 567.096C560.976 560.472 580.848 547.8 592.656 532.68H608.496C613.968 539.88 621.312 546.36 629.232 551.976H618.576V601.8H629.52V552.12C638.592 558.312 648.672 563.352 658.896 566.52C660.336 563.784 663.504 559.608 665.952 557.448C648.816 552.984 631.824 543.768 621.024 532.68H649.248ZM744.864 584.52V527.496H798.432V516.84H744.864V472.776H733.632V584.52H679.92V595.176H808.224V584.52H744.864ZM943.008 518.136C929.904 511.944 907.44 502.872 889.152 496.68C889.584 495.672 890.016 494.52 890.448 493.368H945.168V483.864H893.04C893.904 479.832 894.624 475.224 895.056 470.472H884.112C883.68 475.368 882.96 479.832 882.096 483.864H831.264V493.368H878.928C872.736 506.616 859.344 513.96 828.96 517.704C830.688 519.72 832.992 523.752 833.856 526.056C860.784 522.456 875.76 515.688 884.4 504.6C902.4 510.936 923.424 519.864 935.232 525.768L943.008 518.136ZM885.696 557.16V576.744H849.12V557.16H885.696ZM896.064 585.528V548.376H838.896V594.888H849.12V585.528H896.064ZM952.224 527.064H824.064V536.856H921.552V588.84C921.552 591.288 920.832 591.864 917.952 592.152C915.072 592.152 905.136 592.296 894.192 591.864C895.776 594.888 897.648 599.064 898.224 602.088C911.472 602.088 920.4 601.944 925.584 600.36C930.768 598.632 932.352 595.608 932.352 588.984V536.856H952.224V527.064ZM1062.82 470.472H1052.59V544.92C1052.59 546.648 1051.87 547.224 1050 547.224C1048.13 547.368 1041.94 547.368 1034.88 547.224C1036.32 549.816 1038.05 553.992 1038.62 556.728C1048.27 556.872 1054.03 556.584 1057.78 554.856C1061.66 553.272 1062.82 550.392 1062.82 544.92V470.472ZM1032.58 492.36C1028.98 508.92 1023.07 525.48 1014.86 536.424C1017.46 537.432 1021.92 540.168 1023.94 541.896C1032 530.232 1038.62 512.52 1042.66 494.232L1032.58 492.36ZM1005.94 510.072C1004.35 528.648 1001.04 544.344 996.288 557.016C991.248 552.984 985.92 548.952 981.024 545.496C983.472 534.552 986.208 522.312 988.8 510.072H1005.94ZM1010.11 499.848L1008.24 500.136H990.816C992.976 490.056 994.848 480.264 996.432 471.48L986.064 470.472C984.624 479.4 982.752 489.624 980.736 500.136H966.336V510.072H978.864C975.264 527.64 971.376 545.064 968.208 557.16L976.992 561.912L978.576 555.72C983.04 559.176 987.504 562.92 991.968 566.808C985.632 579.192 977.424 587.976 967.488 593.448C969.648 595.608 972.384 599.64 973.824 602.088C984.48 595.608 993.12 586.536 999.744 574.008C1005.07 579.192 1009.54 584.088 1012.7 588.264L1019.47 579.48C1016.02 574.872 1010.54 569.544 1004.35 564.072C1010.83 547.944 1014.86 527.208 1016.3 500.856L1010.11 499.848ZM1077.79 541.608C1069.58 569.112 1050.58 585.384 1017.02 592.728C1019.47 595.032 1021.92 599.064 1023.22 601.944C1058.78 593.016 1078.94 575.016 1088.16 544.2L1077.79 541.608ZM1072.03 494.952C1079.52 508.344 1086.72 526.056 1088.88 537L1098.67 533.688C1096.37 522.6 1088.74 505.32 1081.1 492.216L1072.03 494.952ZM1156.99 533.256H1126.75V503.16H1156.99V533.256ZM1126.75 577.32V542.76H1156.99V577.32H1126.75ZM1138.85 470.184C1137.84 476.952 1135.25 486.6 1133.09 493.512H1116.96V598.344H1126.75V586.968H1166.78V493.512H1142.88C1145.33 487.32 1147.92 479.4 1150.37 472.344L1138.85 470.184ZM1237.2 493.08H1194.14C1196.59 486.312 1198.61 479.4 1200.34 472.344L1190.11 469.896C1185.5 489.624 1177.73 509.496 1168.08 522.168C1170.38 523.608 1174.99 526.488 1176.86 528.216C1181.9 521.448 1186.37 512.664 1190.4 503.016H1226.98C1225.1 560.328 1222.94 582.216 1218.19 587.256C1216.75 589.128 1215.17 589.416 1212.29 589.416C1208.98 589.416 1200.34 589.416 1190.98 588.552C1192.99 591.576 1194.29 595.896 1194.58 599.064C1202.64 599.496 1210.85 599.784 1215.89 599.208C1220.78 598.776 1224.1 597.48 1227.26 593.448C1233.02 586.392 1234.9 564.216 1237.2 498.552V493.08ZM1214.45 557.88C1209.84 549.384 1199.9 535.56 1191.84 525.336L1183.49 530.232C1191.41 540.6 1201.06 554.856 1205.38 563.496L1214.45 557.88ZM1292.78 496.392C1288.18 490.488 1278.38 481.56 1270.75 475.08L1263.84 481.704C1271.62 488.328 1281.12 497.832 1285.58 503.88L1292.78 496.392ZM1286.59 576.168V515.544H1255.2V525.768H1276.51V576.168C1276.51 583.368 1271.47 588.696 1268.74 590.856C1270.61 592.44 1273.63 596.04 1274.78 598.2C1276.94 595.32 1280.69 592.584 1304.59 574.728C1303.73 572.712 1302.29 568.68 1301.42 565.8L1286.59 576.168ZM1343.33 534.84V562.056H1320V534.84H1343.33ZM1352.98 571.416V525.624H1310.35V581.064H1320V571.416H1352.98ZM1359.89 502.008H1304.74V511.224H1359.89V502.008ZM1380.48 477.816H1301.14V487.752H1370.26V588.12C1370.26 590.568 1369.39 591.432 1366.94 591.432C1364.35 591.576 1355.86 591.72 1347.07 591.288C1348.51 594.024 1350.1 599.064 1350.67 601.944C1362.34 601.944 1369.97 601.8 1374.58 599.928C1378.9 598.2 1380.48 594.888 1380.48 588.12V477.816ZM1435.49 495.816C1431.02 489.912 1421.09 480.696 1413.46 474.36L1406.54 480.84C1414.18 487.752 1423.68 497.4 1428.14 503.448L1435.49 495.816ZM1428.86 577.896V515.4H1398.91V525.624H1418.78V577.752C1418.78 583.656 1415.76 586.824 1413.74 588.264C1415.47 590.568 1418.21 595.176 1419.07 597.768C1421.23 595.032 1424.98 592.152 1448.88 575.736C1447.87 573.576 1446.58 569.4 1446 566.664L1428.86 577.896ZM1509.22 561.336V587.112H1460.4V561.336H1509.22ZM1450.18 602.088H1460.4V596.472H1509.22V601.656H1519.73V551.976H1450.18V602.088ZM1504.46 510.792C1503.89 516.84 1503.17 524.04 1502.3 530.376H1472.93C1474.37 524.616 1475.95 517.848 1477.54 510.792H1504.46ZM1512.53 530.376C1513.68 521.16 1514.83 510.648 1515.41 501.576L1507.78 500.856L1506.19 501.432H1479.55C1480.85 495.96 1482 490.344 1483.01 485.304H1524.48V475.656H1443.12V485.304H1472.06C1471.2 490.344 1470.19 495.96 1468.9 501.432H1448.45V510.792H1466.74C1465.15 517.848 1463.57 524.616 1461.98 530.376H1438.22V540.168H1529.38V530.376H1512.53Z" fill="white"/>
</svg>
